# xmcd CD database file
#
# Track frame offsets:
#	150
#	16289
#	30521
#	42889
#	63144
#	84929
#	100349
#	118369
#	135821
#	147596
#	166246
#	181676
#
# Disc length: 2641 seconds
#
# Revision: 4
# Processed by: cddbd v1.5.2PL0 Copyright (c) Steve Scherf et al.
# Submitted via: CDex 1.51
#
DISCID=900a4f0c
DTITLE=谭咏麟 - 反斗星
DYEAR=1979
DGENRE=Pop
TTITLE0=反斗星
TTITLE1=劲舞热辣辣
TTITLE2=愿你接受
TTITLE3=唱一首好歌
TTITLE4=可会有明天
TTITLE5=爱在阳光空气中
TTITLE6=孩儿
TTITLE7=不要罗唆
TTITLE8=玩得开心的
TTITLE9=恩爱尽变
TTITLE10=星语
TTITLE11=个心立立乱
EXTD=YEAR: 1979
EXTT0=
EXTT1=
EXTT2=
EXTT3=
EXTT4=
EXTT5=
EXTT6=
EXTT7=
EXTT8=
EXTT9=
EXTT10=
EXTT11=
PLAYORDER=
